<svg width="42" height="42" viewBox="0 0 42 42" fill="none" xmlns="http://www.w3.org/2000/svg">
<path d="M42 21.7843C42 18.4453 38.8897 15.5329 33.991 13.6678C34.0937 12.8613 34.1712 12.067 34.1926 11.3029C34.3261 6.73694 32.979 3.51179 30.4027 2.22221C29.628 1.83434 28.7673 1.63745 27.8441 1.63745C25.4069 1.63745 22.6242 3.04366 19.9069 5.45247C16.9493 3.61219 14.0626 2.57226 11.6136 2.57226C9.98801 2.57226 8.62185 3.0236 7.55306 3.91412C5.13218 5.93323 4.77933 9.84162 6.18138 14.4431C2.34861 16.2946 0 18.8803 0 21.7843C0 25.0906 3.04728 27.9797 7.86298 29.8485C7.84388 30.1303 7.81582 30.4197 7.80743 30.696C7.67441 35.2625 9.02138 38.4877 11.5973 39.7786C12.3716 40.1669 13.2318 40.363 14.1554 40.363C16.9693 40.363 20.242 38.4979 23.343 35.3681C25.8577 36.7468 28.2828 37.5179 30.3859 37.5179C32.012 37.5179 33.3786 37.0661 34.4474 36.1755C36.2985 34.6317 36.9333 31.9787 36.5095 28.762C39.9241 26.9416 42 24.5054 42 21.7843ZM27.8441 3.54912C28.4667 3.54912 29.0389 3.67702 29.5458 3.93043C31.3922 4.85501 32.391 7.52194 32.2808 11.2465C32.264 11.8299 32.2146 12.432 32.1464 13.0438C30.7434 12.6214 29.2331 12.2733 27.6248 12.0198C25.6738 9.87423 23.6016 8.02364 21.5293 6.54181C23.7528 4.64645 25.9604 3.54912 27.8441 3.54912ZM10.9331 23.7726C11.6071 24.7275 12.323 25.6815 13.1085 26.6242C14.0663 27.7724 15.0632 28.845 16.0816 29.8429C13.8428 29.5703 11.7587 29.1213 9.90959 28.5295C10.1052 27.0051 10.4477 25.4089 10.9331 23.7726ZM8.58268 15.5012C9.90863 14.9947 11.3891 14.5682 12.9835 14.2349C12.5802 14.9382 12.1863 15.6552 11.8134 16.3996C11.3098 17.4054 10.8613 18.4186 10.4469 19.4301C9.69631 18.0906 9.07878 16.7725 8.58268 15.5012ZM14.5778 25.3995C13.5071 24.1152 12.5522 22.7989 11.6985 21.4818C12.2166 20.077 12.8201 18.6614 13.5234 17.2551C14.1297 16.0443 14.7873 14.8925 15.4753 13.7957C17.2321 13.554 19.0887 13.4223 21.0004 13.4223C22.963 13.4223 24.8692 13.5619 26.667 13.8163C26.9219 14.1047 27.1749 14.3931 27.4231 14.6919C28.6768 16.1952 29.7866 17.7419 30.7406 19.2816C30.1441 21.0874 29.388 22.924 28.477 24.7433C27.5482 26.6 26.5046 28.3297 25.3976 29.9025C23.9787 30.0556 22.5104 30.1462 20.9996 30.1462C20.3914 30.1462 19.7912 30.1303 19.1965 30.1051C17.605 28.732 16.0382 27.1525 14.5778 25.3995ZM29.6009 14.3609C30.3851 14.5396 31.1383 14.7394 31.858 14.962C31.7432 15.5805 31.605 16.2077 31.4444 16.8434C30.8769 16.0127 30.2534 15.1848 29.6009 14.3609ZM30.1871 25.5993C30.8723 24.2289 31.4678 22.8493 31.9869 21.4734C33.1369 23.6567 33.9556 25.7739 34.3867 27.68C32.5534 28.4791 30.3561 29.1157 27.9384 29.5442C28.7337 28.3026 29.4917 26.9883 30.1871 25.5993ZM20.1048 7.87807C21.6226 8.93759 23.1534 10.2145 24.6358 11.6693C23.4551 11.5718 22.2461 11.5107 21.0014 11.5107C19.5844 11.5107 18.207 11.5793 16.8764 11.7048C17.9131 10.2677 19.0015 8.98611 20.1048 7.87807ZM8.77781 5.38245C9.49374 4.78602 10.4478 4.48401 11.6137 4.48401C13.5917 4.48401 15.9771 5.33208 18.4671 6.81903C17.0277 8.29951 15.6303 10.0586 14.3351 12.0268C11.9856 12.3992 9.83493 12.9654 7.9498 13.6888C6.83153 9.95825 7.00747 6.85828 8.77781 5.38245ZM8.07115 27.862C4.314 26.3246 1.91175 24.1543 1.91175 21.7843C1.91175 19.6929 3.78888 17.7559 6.81242 16.2708C7.50086 18.0364 8.42776 19.8754 9.57688 21.7311C8.85895 23.8323 8.35541 25.8971 8.07115 27.862ZM14.1564 38.4492C13.5343 38.4492 12.9616 38.3213 12.4547 38.0684C10.6083 37.1442 9.61141 34.4764 9.71917 30.751C9.72101 30.6661 9.73268 30.5746 9.73644 30.4906C12.3002 31.2747 15.2453 31.7955 18.4377 31.9785C19.5075 32.87 20.5875 33.6653 21.661 34.3608C19.0486 36.9194 16.3776 38.4492 14.1564 38.4492ZM23.0023 32.9437C22.5543 32.6619 22.1043 32.3631 21.6525 32.042C22.3927 32.0318 23.1218 32.0029 23.8405 31.9571C23.5624 32.2978 23.2841 32.6264 23.0023 32.9437ZM33.2236 34.7081C32.5077 35.3036 31.5547 35.606 30.3869 35.606C28.7169 35.606 26.7557 35.002 24.6872 33.9202C25.2893 33.2275 25.882 32.4901 26.4579 31.7088C29.5571 31.3148 32.3574 30.5979 34.6976 29.6225C34.9002 31.8731 34.4502 33.6849 33.2236 34.7081ZM36.1436 26.7904C35.5461 24.3709 34.4176 21.718 32.8195 19.0189C33.1724 17.8623 33.4579 16.7222 33.6773 15.6052C37.5792 17.1482 40.0883 19.3629 40.0883 21.7843C40.0883 23.6447 38.5986 25.3819 36.1436 26.7904Z" fill="#FF602E"/>
<path d="M21.0004 17.1482C22.9219 17.1482 24.4808 18.7061 24.4808 20.6286C24.4808 22.5506 22.9219 24.1086 21.0004 24.1086C19.078 24.1086 17.52 22.5507 17.52 20.6286C17.52 18.7061 19.078 17.1482 21.0004 17.1482Z" fill="#FF602E"/>
</svg>
