<svg width="41" height="41" viewBox="0 0 41 41" fill="none" xmlns="http://www.w3.org/2000/svg">
<mask id="path-1-inside-1_1_2239" fill="white">
<path d="M18.7841 28.5608C19.5257 27.8192 19.5257 26.6124 18.7839 25.8705L15.5994 22.6882C15.2412 22.33 14.764 22.1328 14.2557 22.1328C13.7473 22.1328 13.27 22.33 12.9117 22.6883C12.17 23.43 12.17 24.6368 12.9117 25.3785L16.094 28.5608C16.4648 28.9317 16.9519 29.1171 17.439 29.1171C17.9261 29.1171 18.4133 28.9317 18.7841 28.5608ZM13.761 24.5292C13.6296 24.3978 13.5573 24.2217 13.5573 24.0335C13.5573 23.8451 13.6296 23.669 13.761 23.5376C13.8924 23.4062 14.0681 23.3339 14.2557 23.3339C14.4432 23.3339 14.6189 23.4062 14.7502 23.5376C14.7502 23.5376 14.7503 23.5377 14.7504 23.5378L17.9348 26.72C18.2082 26.9934 18.2081 27.4382 17.9348 27.7116C17.6614 27.985 17.2166 27.9849 16.9433 27.7116L13.761 24.5292Z"/>
</mask>
<path d="M18.7841 28.5608C19.5257 27.8192 19.5257 26.6124 18.7839 25.8705L15.5994 22.6882C15.2412 22.33 14.764 22.1328 14.2557 22.1328C13.7473 22.1328 13.27 22.33 12.9117 22.6883C12.17 23.43 12.17 24.6368 12.9117 25.3785L16.094 28.5608C16.4648 28.9317 16.9519 29.1171 17.439 29.1171C17.9261 29.1171 18.4133 28.9317 18.7841 28.5608ZM13.761 24.5292C13.6296 24.3978 13.5573 24.2217 13.5573 24.0335C13.5573 23.8451 13.6296 23.669 13.761 23.5376C13.8924 23.4062 14.0681 23.3339 14.2557 23.3339C14.4432 23.3339 14.6189 23.4062 14.7502 23.5376C14.7502 23.5376 14.7503 23.5377 14.7504 23.5378L17.9348 26.72C18.2082 26.9934 18.2081 27.4382 17.9348 27.7116C17.6614 27.985 17.2166 27.9849 16.9433 27.7116L13.761 24.5292Z" fill="#FF602E"/>
<path d="M18.7841 28.5608L73.9384 83.7151L73.9414 83.7122L18.7841 28.5608ZM18.7839 25.8705L73.9413 -29.2808L73.9304 -29.2916L73.9196 -29.3025L18.7839 25.8705ZM15.5994 22.6882L-39.5488 77.8486L-39.5425 77.8549L-39.5362 77.8612L15.5994 22.6882ZM12.9117 25.3785L68.0675 -29.7745L68.0661 -29.7758L12.9117 25.3785ZM16.094 28.5608L-39.0618 83.7138L-39.0604 83.7151L16.094 28.5608ZM13.761 24.5292L68.9168 -30.6237L68.9154 -30.6251L13.761 24.5292ZM14.7502 23.5376L-40.4209 78.6751L-40.2003 78.8958L-39.978 79.1148L14.7502 23.5376ZM14.7504 23.5378L-40.4039 78.6921L-40.3946 78.7015L-40.3852 78.7108L14.7504 23.5378ZM17.9348 26.72L73.0891 -28.4343L73.0798 -28.4437L73.0704 -28.453L17.9348 26.72ZM17.9348 27.7116L73.0891 82.8659L73.0972 82.8578L17.9348 27.7116ZM16.9433 27.7116L-38.2125 82.8645L-38.203 82.874L16.9433 27.7116ZM73.9414 83.7122C105.144 52.506 105.136 1.91699 73.9413 -29.2808L-36.3734 81.0219C-66.0843 51.3078 -66.0928 3.13231 -36.3732 -26.5905L73.9414 83.7122ZM73.9196 -29.3025L70.735 -32.4849L-39.5362 77.8612L-36.3517 81.0436L73.9196 -29.3025ZM70.7476 -32.4723C55.7044 -47.5122 35.3662 -55.8672 14.2557 -55.8672V100.133C-5.83815 100.133 -25.222 92.1723 -39.5488 77.8486L70.7476 -32.4723ZM14.2557 -55.8672C-6.85292 -55.8672 -27.1953 -47.5133 -42.2426 -32.466L68.0661 77.8426C53.7353 92.1734 34.3475 100.133 14.2557 100.133V-55.8672ZM-42.2426 -32.466C-73.4452 -1.26342 -73.4452 49.3302 -42.2426 80.5328L68.0661 -29.7758C97.7853 -0.0566425 97.7853 48.1234 68.0661 77.8426L-42.2426 -32.466ZM-42.244 80.5314L-39.0618 83.7138L71.2497 -26.5921L68.0675 -29.7745L-42.244 80.5314ZM-39.0604 83.7151C-23.424 99.3516 -2.81527 107.117 17.439 107.117V-48.8829C36.7191 -48.8829 56.3535 -41.4882 71.2483 -26.5935L-39.0604 83.7151ZM17.439 107.117C37.6933 107.117 58.302 99.3516 73.9384 83.7151L-36.3703 -26.5935C-21.4755 -41.4882 -1.84103 -48.8829 17.439 -48.8829V107.117ZM68.9154 -30.6251C83.64 -15.9004 91.5573 3.85984 91.5573 24.0335H-64.4427C-64.4427 44.5836 -56.3808 64.6961 -41.3933 79.6835L68.9154 -30.6251ZM91.5573 24.0335C91.5573 44.2025 83.6432 63.9641 68.9154 78.6919L-41.3933 -31.6167C-56.3839 -16.6261 -64.4427 3.48776 -64.4427 24.0335H91.5573ZM68.9154 78.6919C54.2572 93.3501 34.5251 101.334 14.2557 101.334V-54.6661C-6.389 -54.6661 -26.4723 -46.5377 -41.3933 -31.6167L68.9154 78.6919ZM14.2557 101.334C-6.00488 101.334 -25.7493 93.3557 -40.4209 78.6751L69.9214 -31.5999C54.9872 -46.5432 34.8913 -54.6661 14.2557 -54.6661V101.334ZM14.7502 23.5376C-39.978 79.1148 -39.9782 79.1146 -39.9784 79.1143C-39.9785 79.1143 -39.9787 79.1141 -39.9788 79.114C-39.9791 79.1137 -39.9794 79.1134 -39.9797 79.1131C-39.9802 79.1126 -39.9808 79.112 -39.9814 79.1114C-39.9825 79.1103 -39.9837 79.1092 -39.9848 79.108C-39.9872 79.1058 -39.9895 79.1034 -39.9919 79.1011C-39.9967 79.0964 -40.0016 79.0915 -40.0067 79.0865C-40.0169 79.0764 -40.0279 79.0656 -40.0395 79.0541C-40.0624 79.0315 -40.09 79.0043 -40.1212 78.9734C-40.1747 78.9204 -40.2765 78.8195 -40.4039 78.6921L69.9048 -31.6165C69.7772 -31.7441 69.6754 -31.845 69.6218 -31.8981C69.5905 -31.929 69.563 -31.9562 69.54 -31.9789C69.5284 -31.9904 69.5174 -32.0012 69.5072 -32.0112C69.5021 -32.0162 69.4972 -32.0211 69.4924 -32.0258C69.49 -32.0282 69.4876 -32.0305 69.4853 -32.0328C69.4842 -32.0339 69.483 -32.0351 69.4819 -32.0362C69.4813 -32.0368 69.4807 -32.0373 69.4802 -32.0379C69.4799 -32.0382 69.4796 -32.0384 69.4793 -32.0387C69.4792 -32.0388 69.479 -32.0391 69.4789 -32.0391C69.4787 -32.0393 69.4785 -32.0396 14.7502 23.5376ZM-40.3852 78.7108L-37.2008 81.893L73.0704 -28.453L69.886 -31.6352L-40.3852 78.7108ZM-37.2196 81.8743C-67.4173 51.6766 -67.3942 2.74078 -37.2276 -27.4346L73.0972 82.8578C103.81 52.1357 103.834 2.31023 73.0891 -28.4343L-37.2196 81.8743ZM-37.2196 -27.4427C-7.02179 -57.6405 41.9141 -57.6174 72.0895 -27.4508L-38.203 82.874C-7.48083 113.587 42.3446 113.61 73.0891 82.8659L-37.2196 -27.4427ZM72.099 -27.4413L68.9168 -30.6237L-41.3947 79.6821L-38.2125 82.8645L72.099 -27.4413Z" fill="#FF602E" mask="url(#path-1-inside-1_1_2239)"/>
<mask id="path-3-inside-2_1_2239" fill="white">
<path d="M14.6323 30.0222L11.4479 26.84C11.0897 26.4817 10.6124 26.2844 10.104 26.2844C9.5956 26.2844 9.11833 26.4817 8.76006 26.84C8.01846 27.5817 8.01846 28.7885 8.76006 29.5302L11.9423 32.7125C12.3005 33.0708 12.7782 33.268 13.2874 33.268C13.7965 33.268 14.2742 33.0707 14.6324 32.7125C15.374 31.9709 15.374 30.7641 14.6323 30.0222V30.0222ZM13.7831 31.8632C13.6518 31.9946 13.4757 32.0669 13.2874 32.0669C13.0991 32.0669 12.9231 31.9946 12.7917 31.8632L9.60945 28.6808C9.33606 28.4075 9.33614 27.9626 9.60945 27.6892C9.74582 27.5529 9.92496 27.4847 10.104 27.4847C10.2831 27.4847 10.4623 27.5529 10.5987 27.6892C10.5987 27.6892 10.5987 27.6893 10.5987 27.6894L13.7831 30.8716C14.0565 31.1451 14.0564 31.5898 13.7831 31.8632V31.8632Z"/>
</mask>
<path d="M14.6323 30.0222L11.4479 26.84C11.0897 26.4817 10.6124 26.2844 10.104 26.2844C9.5956 26.2844 9.11833 26.4817 8.76006 26.84C8.01846 27.5817 8.01846 28.7885 8.76006 29.5302L11.9423 32.7125C12.3005 33.0708 12.7782 33.268 13.2874 33.268C13.7965 33.268 14.2742 33.0707 14.6324 32.7125C15.374 31.9709 15.374 30.7641 14.6323 30.0222V30.0222ZM13.7831 31.8632C13.6518 31.9946 13.4757 32.0669 13.2874 32.0669C13.0991 32.0669 12.9231 31.9946 12.7917 31.8632L9.60945 28.6808C9.33606 28.4075 9.33614 27.9626 9.60945 27.6892C9.74582 27.5529 9.92496 27.4847 10.104 27.4847C10.2831 27.4847 10.4623 27.5529 10.5987 27.6892C10.5987 27.6892 10.5987 27.6893 10.5987 27.6894L13.7831 30.8716C14.0565 31.1451 14.0564 31.5898 13.7831 31.8632V31.8632Z" fill="#FF602E"/>
<path d="M11.4479 26.84L-43.7126 81.9882L-43.7002 82.0006L-43.6877 82.013L11.4479 26.84ZM8.76006 26.84L-46.3943 -28.3143L-46.3972 -28.3113L8.76006 26.84ZM8.76006 29.5302L-46.3972 84.6815L-46.3957 84.6831L8.76006 29.5302ZM11.9423 32.7125L67.1028 -22.4356L67.098 -22.4404L11.9423 32.7125ZM14.6324 32.7125L69.7806 87.873L69.7897 87.8639L14.6324 32.7125ZM12.7917 31.8632L-42.364 87.0162L-42.3627 87.0176L12.7917 31.8632ZM9.60945 28.6808L64.7652 -26.4721L64.7638 -26.4735L9.60945 28.6808ZM9.60945 27.6892L-45.5449 -27.4651L-45.553 -27.457L9.60945 27.6892ZM10.5987 27.6892L66.3637 -26.8475L66.0601 -27.158L65.753 -27.4651L10.5987 27.6892ZM10.5987 27.6894H-67.4013V60.0136L-44.5368 82.8625L10.5987 27.6894ZM13.7831 30.8716L68.9455 -24.2746L68.9321 -24.288L68.9187 -24.3015L13.7831 30.8716ZM69.7679 -25.1508L66.5835 -28.333L-43.6877 82.013L-40.5033 85.1953L69.7679 -25.1508ZM66.6084 -28.3082C51.5635 -43.3564 31.2196 -51.7156 10.104 -51.7156V104.284C-9.99476 104.284 -29.3841 96.3199 -43.7126 81.9882L66.6084 -28.3082ZM10.104 -51.7156C-11.0131 -51.7156 -31.353 -43.3556 -46.3943 -28.3143L63.9144 81.9943C49.5896 96.3191 30.2043 104.284 10.104 104.284V-51.7156ZM-46.3972 -28.3113C-77.5958 2.89055 -77.5958 53.4796 -46.3972 84.6815L63.9174 -25.6212C93.6327 4.09733 93.6327 52.2728 63.9174 81.9914L-46.3972 -28.3113ZM-46.3957 84.6831L-43.2134 87.8655L67.098 -22.4404L63.9158 -25.6228L-46.3957 84.6831ZM-43.2182 87.8607C-28.1414 102.941 -7.78369 111.268 13.2874 111.268V-44.732C33.3401 -44.732 52.7424 -36.7992 67.1028 -22.4356L-43.2182 87.8607ZM13.2874 111.268C34.3709 111.268 54.7178 102.932 69.7806 87.873L-40.5157 -22.448C-26.1695 -36.791 -6.77794 -44.732 13.2874 -44.732V111.268ZM69.7897 87.8639C100.993 56.6577 100.984 6.0686 69.7896 -25.1291L-40.525 85.1736C-70.2359 55.4595 -70.2445 7.28405 -40.5249 -22.4388L69.7897 87.8639ZM-41.388 -23.2743C-26.6533 -38.018 -6.88198 -45.9331 13.2874 -45.9331V110.067C33.8334 110.067 53.9569 102.007 68.9543 87.0007L-41.388 -23.2743ZM13.2874 -45.9331C33.4657 -45.9331 53.2247 -38.0124 67.946 -23.2911L-42.3627 87.0176C-27.3785 102.002 -7.26755 110.067 13.2874 110.067V-45.9331ZM67.9474 -23.2897L64.7652 -26.4721L-45.5463 83.8338L-42.364 87.0162L67.9474 -23.2897ZM64.7638 -26.4735C94.9615 3.72428 94.9384 52.6601 64.7719 82.8355L-45.553 -27.457C-76.2661 3.26516 -76.2894 53.0906 -45.5449 83.8352L64.7638 -26.4735ZM64.7638 82.8436C49.6325 97.9749 29.6891 105.485 10.104 105.485V-50.5153C-9.83915 -50.5153 -30.1408 -42.8691 -45.5449 -27.4651L64.7638 82.8436ZM10.104 105.485C-9.47622 105.485 -29.4211 97.9781 -44.5557 82.8436L65.753 -27.4651C50.3457 -42.8724 30.0425 -50.5153 10.104 -50.5153V105.485ZM10.5987 27.6892C-45.1664 82.226 -45.1796 82.2125 -45.1927 82.1991C-45.1971 82.1946 -45.2103 82.1811 -45.219 82.1721C-45.2366 82.1541 -45.2543 82.136 -45.2719 82.1179C-45.3073 82.0816 -45.3428 82.0451 -45.3785 82.0083C-45.4499 81.9347 -45.522 81.8602 -45.5947 81.7845C-45.7403 81.6334 -45.8888 81.4778 -46.0403 81.3179C-46.3426 80.9986 -46.6588 80.6593 -46.9865 80.3005C-47.6374 79.5881 -48.3591 78.7717 -49.1281 77.8561C-50.5985 76.1055 -52.569 73.605 -54.6495 70.4289C-56.6474 67.3787 -59.4811 62.5954 -61.9594 56.3131C-64.3695 50.2038 -67.4013 40.2694 -67.4013 27.6894H88.5987C88.5987 4.54302 78.3376 -11.2478 75.8469 -15.0503C73.7664 -18.2265 71.7958 -20.727 70.3255 -22.4776C69.5564 -23.3932 68.8347 -24.2096 68.1838 -24.922C67.8561 -25.2808 67.5399 -25.6201 67.2376 -25.9394C67.0862 -26.0993 66.9376 -26.2549 66.792 -26.4061C66.7193 -26.4817 66.6472 -26.5563 66.5758 -26.6298C66.5401 -26.6666 66.5046 -26.7031 66.4692 -26.7394C66.4516 -26.7575 66.4339 -26.7756 66.4164 -26.7936C66.4076 -26.8026 66.3944 -26.8161 66.39 -26.8206C66.3769 -26.8341 66.3637 -26.8475 10.5987 27.6892ZM-44.5368 82.8625L-41.3525 86.0447L68.9187 -24.3015L65.7343 -27.4837L-44.5368 82.8625ZM-41.3793 86.0179C-71.5618 55.8265 -71.5503 6.89684 -41.3793 -23.283L68.9455 87.0095C99.6632 56.2828 99.6748 6.46368 68.9455 -24.2746L-41.3793 86.0179Z" fill="#FF602E" mask="url(#path-3-inside-2_1_2239)"/>
<path d="M13.4112 35.1101C13.0795 35.1101 12.8118 35.379 12.8118 35.7107C12.8118 36.0416 13.0805 36.31 13.4112 36.3113C13.4119 36.3113 13.4127 36.3113 13.4135 36.3113C13.7452 36.3113 14.0141 36.0424 14.0141 35.7107C14.0141 35.379 13.7452 35.1101 13.4135 35.1101H13.4112Z" fill="#FF602E" stroke="#FF602E" stroke-width="78"/>
<path d="M16.0352 34.1365C15.7035 34.1365 15.4358 34.4054 15.4358 34.7371C15.4358 35.068 15.7046 35.3364 16.0352 35.3376C16.036 35.3376 16.0367 35.3376 16.0375 35.3376C16.3692 35.3376 16.6381 35.0687 16.6381 34.7371C16.6381 34.4054 16.3692 34.1365 16.0375 34.1365H16.0352Z" fill="#FF602E" stroke="#FF602E" stroke-width="78"/>
<mask id="path-7-inside-3_1_2239" fill="white">
<path d="M40.3324 0.653658C40.1929 0.477246 39.9887 0.391402 39.7231 0.395005H37.8365C37.4321 0.395005 37.1133 0.523531 36.8306 0.802523L36.6618 0.971328L35.8664 0.175912C35.6318 -0.0586372 35.2516 -0.0586372 35.017 0.175912C34.7824 0.41046 34.7824 0.790671 35.017 1.02522L35.8126 1.8208L34.5535 3.08043L33.7577 2.28461C33.5231 2.05006 33.1429 2.05006 32.9083 2.28461C32.6737 2.51916 32.6737 2.89937 32.9083 3.13392L33.7044 3.92997L32.446 5.1888L31.6487 4.39299C31.4139 4.1586 31.0337 4.159 30.7994 4.39379C30.5651 4.6285 30.5654 5.00879 30.8002 5.24309L31.5969 6.03835L31.0266 6.60883L21.5824 16.0534C21.1196 14.8269 20.8653 13.0016 21.8851 10.232C22.1098 9.62041 22.342 8.98787 21.9329 8.56858C21.533 8.15874 20.9395 8.36046 20.3651 8.55545C17.1217 9.66052 15.7074 10.9359 14.5819 12.5109C14.389 12.7808 14.4514 13.1559 14.7213 13.3487C14.9911 13.5414 15.3661 13.479 15.559 13.2093C16.5782 11.7832 17.8024 10.6975 20.752 9.69256C20.772 9.68575 20.7913 9.67926 20.81 9.67302C20.7944 9.71738 20.7771 9.76543 20.758 9.81748C19.7411 12.5788 19.7093 14.8652 20.6657 16.9702L17.4948 20.1412C17.2922 20.3413 17.1802 20.6088 17.1793 20.8944C17.1784 21.1814 17.2895 21.451 17.492 21.6534L19.8165 23.9803C20.0249 24.1887 20.2987 24.2929 20.5724 24.2929C20.8463 24.2929 21.12 24.1887 21.3285 23.9803L23.7622 21.5465C24.0178 22.2033 24.075 23.0003 23.9424 23.9966C23.8097 24.9994 23.873 26.0194 25.2226 26.686C25.6325 26.8889 26.1869 26.9219 26.7741 26.9569C27.0917 26.9759 27.6517 27.0093 27.8774 27.0962C27.8312 27.2249 27.6704 27.5361 27.1115 28.1318C26.1768 29.1297 25.1503 29.4686 23.2033 29.8507C20.9022 30.3019 20.1301 31.695 19.6388 33.1328C19.3749 33.9039 18.9649 35.0352 18.5103 36.0463C17.6229 38.0288 16.0379 39.3642 14.1618 39.71C13.8439 39.7686 13.5253 39.7976 13.2074 39.7976C11.6576 39.7975 10.1291 39.1082 8.82192 37.8009L3.3971 32.376C1.73316 30.712 1.00805 28.9562 1.24204 27.1572C1.53681 24.8909 3.30726 23.1179 4.73361 22.2884C5.57058 21.802 6.43991 21.6275 7.36017 21.4427C8.47806 21.2184 9.63391 20.9863 10.7148 20.1682C12.1124 19.1065 13.0356 17.4695 13.8501 16.0254C13.915 15.9104 13.9789 15.7968 14.0424 15.6851C14.2061 15.3968 14.1051 15.0302 13.8166 14.8664C13.5282 14.7026 13.1616 14.8037 12.9979 15.0921C12.9339 15.2048 12.8693 15.3194 12.8039 15.4354C12.0466 16.7782 11.1882 18.3002 9.98905 19.2112C9.12813 19.8628 8.15455 20.0583 7.12378 20.2652C6.14811 20.4611 5.1392 20.6637 4.12998 21.2501C2.38796 22.2632 0.401621 24.3064 0.0509584 27.0024C-0.144672 28.5066 0.129675 30.8073 2.54779 33.2254L7.97261 38.6503C9.51147 40.1894 11.3315 41.0001 13.1967 41.0001C13.5897 41.0001 13.9848 40.964 14.3795 40.8913C16.6501 40.4728 18.5553 38.8858 19.6062 36.538C20.0793 35.4858 20.5031 34.317 20.7753 33.5216C21.2325 32.1838 21.8142 31.3471 23.4346 31.0294C25.6 30.6044 26.8338 30.1853 27.9878 28.9533C28.6685 28.2278 29.3238 27.3842 29.0231 26.6288C28.721 25.8699 27.7676 25.8131 26.8456 25.7581C26.4452 25.7342 25.9469 25.7044 25.7548 25.6094C25.1406 25.3059 25.0184 25.0204 25.1331 24.1547C25.3216 22.7379 25.1681 21.5836 24.6655 20.6433L34.6875 10.6211H36.9439H36.9564C37.319 10.6211 37.976 10.6117 38.1991 9.77063L38.8868 7.17842C38.9718 6.85779 38.7809 6.52899 38.4603 6.44395C38.1397 6.35882 37.8108 6.54989 37.7259 6.87036L37.0495 9.41949C37.0146 9.41997 36.9769 9.41981 36.9443 9.41997H34.6875L32.3008 7.03332L34.9662 4.3668C34.9705 4.3628 34.975 4.35927 34.9791 4.35519C34.9833 4.35103 34.9869 4.34646 34.9909 4.34214L37.0661 2.26603C37.0733 2.25946 37.0808 2.25346 37.0878 2.24649C37.0949 2.23944 37.101 2.23192 37.1076 2.22455L37.6774 1.65455C37.7228 1.60963 37.7366 1.5961 37.8366 1.5961H39.1225L38.4252 4.22594C38.3402 4.54658 38.5311 4.8753 38.8517 4.96034C39.1724 5.04522 39.5011 4.8544 39.5861 4.53376L40.4285 1.35714C40.4657 1.21557 40.5437 0.920878 40.3324 0.653658V0.653658ZM20.5724 23.0377L18.4357 20.8988L19.896 19.4385L22.0338 21.5763L20.5724 23.0377ZM22.8831 20.727L20.7453 18.5892L22.2078 17.1266L24.3455 19.2645L22.8831 20.727ZM25.1949 18.4151L23.0571 16.2773L24.5186 14.8158L26.6572 16.9528L25.1949 18.4151ZM27.5065 16.1034L25.3679 13.9664L26.8302 12.504L28.968 14.6419L27.5065 16.1034ZM29.8173 13.7926L27.6795 11.6548L29.1409 10.1934L31.2786 12.3313L29.8173 13.7926ZM33.5893 10.0205L32.1279 11.4819L29.9902 9.34406L31.4515 7.88271L33.5893 10.0205Z"/>
</mask>
<path d="M40.3324 0.653658C40.1929 0.477246 39.9887 0.391402 39.7231 0.395005H37.8365C37.4321 0.395005 37.1133 0.523531 36.8306 0.802523L36.6618 0.971328L35.8664 0.175912C35.6318 -0.0586372 35.2516 -0.0586372 35.017 0.175912C34.7824 0.41046 34.7824 0.790671 35.017 1.02522L35.8126 1.8208L34.5535 3.08043L33.7577 2.28461C33.5231 2.05006 33.1429 2.05006 32.9083 2.28461C32.6737 2.51916 32.6737 2.89937 32.9083 3.13392L33.7044 3.92997L32.446 5.1888L31.6487 4.39299C31.4139 4.1586 31.0337 4.159 30.7994 4.39379C30.5651 4.6285 30.5654 5.00879 30.8002 5.24309L31.5969 6.03835L31.0266 6.60883L21.5824 16.0534C21.1196 14.8269 20.8653 13.0016 21.8851 10.232C22.1098 9.62041 22.342 8.98787 21.9329 8.56858C21.533 8.15874 20.9395 8.36046 20.3651 8.55545C17.1217 9.66052 15.7074 10.9359 14.5819 12.5109C14.389 12.7808 14.4514 13.1559 14.7213 13.3487C14.9911 13.5414 15.3661 13.479 15.559 13.2093C16.5782 11.7832 17.8024 10.6975 20.752 9.69256C20.772 9.68575 20.7913 9.67926 20.81 9.67302C20.7944 9.71738 20.7771 9.76543 20.758 9.81748C19.7411 12.5788 19.7093 14.8652 20.6657 16.9702L17.4948 20.1412C17.2922 20.3413 17.1802 20.6088 17.1793 20.8944C17.1784 21.1814 17.2895 21.451 17.492 21.6534L19.8165 23.9803C20.0249 24.1887 20.2987 24.2929 20.5724 24.2929C20.8463 24.2929 21.12 24.1887 21.3285 23.9803L23.7622 21.5465C24.0178 22.2033 24.075 23.0003 23.9424 23.9966C23.8097 24.9994 23.873 26.0194 25.2226 26.686C25.6325 26.8889 26.1869 26.9219 26.7741 26.9569C27.0917 26.9759 27.6517 27.0093 27.8774 27.0962C27.8312 27.2249 27.6704 27.5361 27.1115 28.1318C26.1768 29.1297 25.1503 29.4686 23.2033 29.8507C20.9022 30.3019 20.1301 31.695 19.6388 33.1328C19.3749 33.9039 18.9649 35.0352 18.5103 36.0463C17.6229 38.0288 16.0379 39.3642 14.1618 39.71C13.8439 39.7686 13.5253 39.7976 13.2074 39.7976C11.6576 39.7975 10.1291 39.1082 8.82192 37.8009L3.3971 32.376C1.73316 30.712 1.00805 28.9562 1.24204 27.1572C1.53681 24.8909 3.30726 23.1179 4.73361 22.2884C5.57058 21.802 6.43991 21.6275 7.36017 21.4427C8.47806 21.2184 9.63391 20.9863 10.7148 20.1682C12.1124 19.1065 13.0356 17.4695 13.8501 16.0254C13.915 15.9104 13.9789 15.7968 14.0424 15.6851C14.2061 15.3968 14.1051 15.0302 13.8166 14.8664C13.5282 14.7026 13.1616 14.8037 12.9979 15.0921C12.9339 15.2048 12.8693 15.3194 12.8039 15.4354C12.0466 16.7782 11.1882 18.3002 9.98905 19.2112C9.12813 19.8628 8.15455 20.0583 7.12378 20.2652C6.14811 20.4611 5.1392 20.6637 4.12998 21.2501C2.38796 22.2632 0.401621 24.3064 0.0509584 27.0024C-0.144672 28.5066 0.129675 30.8073 2.54779 33.2254L7.97261 38.6503C9.51147 40.1894 11.3315 41.0001 13.1967 41.0001C13.5897 41.0001 13.9848 40.964 14.3795 40.8913C16.6501 40.4728 18.5553 38.8858 19.6062 36.538C20.0793 35.4858 20.5031 34.317 20.7753 33.5216C21.2325 32.1838 21.8142 31.3471 23.4346 31.0294C25.6 30.6044 26.8338 30.1853 27.9878 28.9533C28.6685 28.2278 29.3238 27.3842 29.0231 26.6288C28.721 25.8699 27.7676 25.8131 26.8456 25.7581C26.4452 25.7342 25.9469 25.7044 25.7548 25.6094C25.1406 25.3059 25.0184 25.0204 25.1331 24.1547C25.3216 22.7379 25.1681 21.5836 24.6655 20.6433L34.6875 10.6211H36.9439H36.9564C37.319 10.6211 37.976 10.6117 38.1991 9.77063L38.8868 7.17842C38.9718 6.85779 38.7809 6.52899 38.4603 6.44395C38.1397 6.35882 37.8108 6.54989 37.7259 6.87036L37.0495 9.41949C37.0146 9.41997 36.9769 9.41981 36.9443 9.41997H34.6875L32.3008 7.03332L34.9662 4.3668C34.9705 4.3628 34.975 4.35927 34.9791 4.35519C34.9833 4.35103 34.9869 4.34646 34.9909 4.34214L37.0661 2.26603C37.0733 2.25946 37.0808 2.25346 37.0878 2.24649C37.0949 2.23944 37.101 2.23192 37.1076 2.22455L37.6774 1.65455C37.7228 1.60963 37.7366 1.5961 37.8366 1.5961H39.1225L38.4252 4.22594C38.3402 4.54658 38.5311 4.8753 38.8517 4.96034C39.1724 5.04522 39.5011 4.8544 39.5861 4.53376L40.4285 1.35714C40.4657 1.21557 40.5437 0.920878 40.3324 0.653658V0.653658ZM20.5724 23.0377L18.4357 20.8988L19.896 19.4385L22.0338 21.5763L20.5724 23.0377ZM22.8831 20.727L20.7453 18.5892L22.2078 17.1266L24.3455 19.2645L22.8831 20.727ZM25.1949 18.4151L23.0571 16.2773L24.5186 14.8158L26.6572 16.9528L25.1949 18.4151ZM27.5065 16.1034L25.3679 13.9664L26.8302 12.504L28.968 14.6419L27.5065 16.1034ZM29.8173 13.7926L27.6795 11.6548L29.1409 10.1934L31.2786 12.3313L29.8173 13.7926ZM33.5893 10.0205L32.1279 11.4819L29.9902 9.34406L31.4515 7.88271L33.5893 10.0205Z" fill="#FF602E" stroke="#FF602E" stroke-width="156" mask="url(#path-7-inside-3_1_2239)"/>
<path d="M35.1627 5.87207C34.831 5.87207 34.5645 6.14097 34.5645 6.47266C34.5645 6.80282 34.8331 7.07077 35.1627 7.07323C35.1642 7.07324 35.1658 7.07324 35.1673 7.07324C35.499 7.07324 35.7679 6.80434 35.7679 6.47266C35.7679 6.14097 35.499 5.87207 35.1673 5.87207H35.1627Z" fill="#FF602E" stroke="#FF602E" stroke-width="78"/>
<path d="M36.4974 4.16284H36.4928C36.1611 4.16284 35.8945 4.43174 35.8945 4.76343C35.8945 5.09359 36.1632 5.36154 36.4928 5.364C36.4943 5.36401 36.4958 5.36401 36.4974 5.36401C36.829 5.36401 37.0979 5.09511 37.0979 4.76343C37.0979 4.43174 36.829 4.16284 36.4974 4.16284Z" fill="#FF602E" stroke="#FF602E" stroke-width="78"/>
</svg>
