<svg width="42" height="37" viewBox="0 0 42 37" fill="none" xmlns="http://www.w3.org/2000/svg">
<g clip-path="url(#clip0_1_2267)">
<rect width="42" height="37" fill="white"/>
<path d="M40.7695 0H35.8477C35.1681 0 34.6172 0.485336 34.6172 1.08398V2.16797H24.4798C23.9718 0.906355 22.6041 0 21 0C19.3959 0 18.0282 0.906355 17.5202 2.16797H7.38281V1.08398C7.38281 0.485336 6.83189 0 6.15234 0H1.23047C0.550922 0 0 0.485336 0 1.08398V5.41992C0 6.01857 0.550922 6.50391 1.23047 6.50391H6.15234C6.83189 6.50391 7.38281 6.01857 7.38281 5.41992V4.32148H12.4997C8.06047 6.79832 5.36197 10.9826 5.03737 15.4245C3.58788 15.8636 2.54297 17.0759 2.54297 18.5C2.54297 20.2931 4.19893 21.752 6.23438 21.752C8.26982 21.752 9.92578 20.2931 9.92578 18.5C9.92578 17.0995 8.91557 15.9029 7.5034 15.4461C7.9403 10.3407 12.1134 5.94356 17.6938 4.69596C18.2987 5.76636 19.5531 6.50391 21 6.50391C22.4469 6.50391 23.7013 5.76636 24.3062 4.69604C29.8867 5.94363 34.0597 10.3408 34.4966 15.4461C33.0844 15.9029 32.0742 17.0995 32.0742 18.5C32.0742 20.2931 33.7302 21.752 35.7656 21.752C37.8011 21.752 39.457 20.2931 39.457 18.5C39.457 17.0759 38.4121 15.8636 36.9626 15.4245C36.6374 10.9737 33.9308 6.80793 29.5003 4.33594H34.6172V5.41992C34.6172 6.01857 35.1681 6.50391 35.8477 6.50391H40.7695C41.4491 6.50391 42 6.01857 42 5.41992V1.08398C42 0.485336 41.4491 0 40.7695 0ZM4.92188 4.33594H2.46094V2.16797H4.92188V4.33594ZM6.23438 19.584C5.55589 19.584 5.00391 19.0977 5.00391 18.5C5.00391 17.9023 5.55589 17.416 6.23438 17.416C6.91286 17.416 7.46484 17.9023 7.46484 18.5C7.46484 19.0977 6.91286 19.584 6.23438 19.584ZM21 4.33594C20.3215 4.33594 19.7695 3.84966 19.7695 3.25195C19.7695 2.65424 20.3215 2.16797 21 2.16797C21.6785 2.16797 22.2305 2.65424 22.2305 3.25195C22.2305 3.84966 21.6785 4.33594 21 4.33594ZM35.7656 17.416C36.4441 17.416 36.9961 17.9023 36.9961 18.5C36.9961 19.0977 36.4441 19.584 35.7656 19.584C35.0871 19.584 34.5352 19.0977 34.5352 18.5C34.5352 17.9023 35.0871 17.416 35.7656 17.416ZM39.5391 4.33594H37.0781V2.16797H39.5391V4.33594Z" fill="#FF602E"/>
<path d="M31.8675 22.2346L22.0237 9.22686C22.0234 9.22643 22.023 9.22599 22.0227 9.22549C22.0191 9.22086 22.0153 9.21645 22.0117 9.2119C21.9948 9.19029 21.977 9.16948 21.9584 9.14917C21.4399 8.5816 20.4526 8.6199 19.9883 9.2119C19.9847 9.21645 19.9808 9.22086 19.9773 9.22549C19.977 9.22599 19.9766 9.22635 19.9762 9.22686L10.1325 22.2347C9.80707 22.6646 9.87147 23.2371 10.2862 23.6024C12.7412 25.7651 14.3037 28.5922 14.7294 31.6168C14.5383 31.7528 14.3538 31.8985 14.1789 32.0562C13.0232 33.0977 12.3867 34.4685 12.3867 35.916C12.3867 36.5146 12.9376 37 13.6172 37H28.3828C29.0624 37 29.6133 36.5146 29.6133 35.916C29.6133 34.4685 28.9768 33.0977 27.8211 32.0562C27.6462 31.8985 27.4618 31.7528 27.2706 31.6167C27.6962 28.592 29.2587 25.7649 31.7137 23.6024C32.1285 23.2371 32.1929 22.6645 31.8675 22.2346ZM21 21.7519C21.6785 21.7519 22.2305 22.2382 22.2305 22.8359C22.2305 23.4336 21.6785 23.9199 21 23.9199C20.3215 23.9199 19.7695 23.4336 19.7695 22.8359C19.7695 22.2382 20.3215 21.7519 21 21.7519ZM15.0575 34.832C15.5694 33.5433 16.9572 32.5918 18.5391 32.5918H23.4609C25.0427 32.5918 26.4305 33.5433 26.9425 34.832H15.0575ZM24.9576 30.5888C24.4736 30.48 23.9719 30.4238 23.4609 30.4238H18.5391C18.0281 30.4238 17.5264 30.48 17.0424 30.5889C16.4665 27.6672 14.971 24.9362 12.7234 22.7192L19.7695 13.4083V19.7705C18.3373 20.218 17.3086 21.4228 17.3086 22.836C17.3086 24.6291 18.9646 26.0879 21 26.0879C23.0354 26.0879 24.6914 24.6291 24.6914 22.836C24.6914 21.4228 23.6626 20.218 22.2305 19.7705V13.4083L29.2766 22.7192C27.029 24.936 25.5334 27.6671 24.9576 30.5888Z" fill="#FF602E"/>
</g>
<defs>
<clipPath id="clip0_1_2267">
<rect width="42" height="37" fill="white"/>
</clipPath>
</defs>
</svg>
