<svg width="46" height="41" viewBox="0 0 46 41" fill="none" xmlns="http://www.w3.org/2000/svg">
<path d="M27.901 30.4491C26.6735 29.7153 16.1612 23.3335 13.3277 18.8671L13.1724 18.6212L12.8527 18.6104C10.4127 18.5217 8.51567 19.7798 7.70286 20.4303C7.3711 20.1306 7.03331 19.8228 6.68798 19.5056L6.2763 19.1292L5.86763 19.5083C4.26764 20.9881 3.56039 22.3644 3.76246 23.605C3.92683 24.6118 4.69893 25.4881 5.99581 26.1427C6.22955 26.261 8.93641 27.9021 11.8785 29.9962C11.3703 30.4585 9.52302 31.5244 8.85347 31.9491C8.10097 32.4249 4.96584 34.9612 4.96584 34.9612L6.99109 35.3873L7.69231 36.6077C7.69231 36.6077 8.65441 34.5083 9.71001 33.472C10.7656 32.4357 12.6099 31.6077 12.6099 31.6077C12.6099 31.6077 11.6131 32.8765 10.8983 34.1077C10.185 35.3389 10.0026 37.4733 10.0026 37.4733L11.2406 37.1239L12.0942 38.7825C12.0942 38.7825 12.3219 36.4384 12.8466 34.9115C13.2704 33.6763 14.3094 32.5056 14.6955 32.0956C18.4262 35.023 22.3244 38.558 23.1041 39.2717C23.5746 39.7529 24.1838 40.1077 24.977 40.265C25.2605 40.3201 25.5485 40.347 25.829 40.347C27.4426 40.347 28.9747 39.4505 29.9609 37.8806C31.113 36.054 31.4373 33.2448 29.4377 31.3994C28.8903 30.89 28.3715 30.601 27.901 30.4491ZM12.0821 28.8403C9.38277 26.9478 6.92021 25.4411 6.56131 25.2596C5.56754 24.7583 5.00656 24.1521 4.89346 23.4585C4.76076 22.644 5.23125 21.6843 6.29288 20.601C8.93339 23.0096 11.1909 24.9209 13.1075 26.4411C12.2404 27.6951 12.0881 28.3685 12.0821 28.8403ZM13.759 25.5929C12.2374 24.3873 10.4957 22.9263 8.51115 21.1548C9.18523 20.6292 10.6676 19.6628 12.5028 19.6239C13.4619 21.0257 15.0513 22.5647 16.8428 24.054C15.9109 24.1386 14.7467 24.5015 13.759 25.5929ZM14.9186 30.9196C15.0152 30.269 15.2414 29.3725 15.7511 28.4491C19.1079 30.886 21.014 31.7771 21.8479 32.0903C21.7182 32.9478 21.4995 34.9236 21.8796 36.73C20.0775 35.1413 17.4279 32.8591 14.9186 30.9196ZM28.9717 37.3873C28.2614 38.515 26.9057 39.605 25.2273 39.2744C22.3455 38.7072 22.6758 33.7166 23.0468 31.8416L23.1402 31.3671L22.6109 31.2569C22.5883 31.2515 20.7953 30.8026 16.3648 27.5782C17.1972 26.7153 18.5303 26.3295 19.5437 26.1588C22.0454 28.0096 24.5367 29.6091 26.0251 30.5351C25.9798 30.5553 25.9376 30.5741 25.8999 30.5956C24.1838 31.4639 23.4675 33.976 23.84 35.179C24.2773 36.5943 25.3374 37.5029 26.4533 37.4841C26.9299 37.4679 28.091 37.2287 28.5148 35.3389L28.5811 35.0446L28.3263 34.8524C26.7157 33.6306 25.8441 32.9088 25.4279 32.5472C25.6933 32.0876 26.0431 31.6884 26.4639 31.476C27.1018 31.1561 27.8271 31.3658 28.6248 32.1037C30.2158 33.5795 29.9202 35.8779 28.9717 37.3873ZM27.3189 35.4276C27.1199 36.0714 26.7866 36.4585 26.4081 36.4679C26.4036 36.4679 26.3975 36.4679 26.39 36.4679C25.9165 36.4679 25.2514 35.929 24.9363 34.9101C24.8352 34.5849 24.8639 34.0997 24.9996 33.5943C25.4716 33.9881 26.209 34.5822 27.3189 35.4276Z" fill="#FF602E"/>
<path d="M8.98618 11.574L7.18262 16.7232C7.18262 16.7232 14.5537 17.3617 20.6913 19.0673C26.8318 20.777 33.2997 23.9907 33.2997 23.9907L35.1334 18.7501C35.1334 18.7501 29.6247 13.8012 23.0634 11.9759C16.5051 10.152 8.98618 11.574 8.98618 11.574Z" fill="#FF602E"/>
<path d="M46 18.8281L43.8541 16.8213L44.0652 16.2125C44.0652 16.2125 45.9563 13.113 41.194 13.6856C40.9467 13.7286 40.7989 13.7998 40.716 13.8885L26.5453 0.647949L0 5.86972L7.30022 11.6816L7.6923 10.5619C7.6923 10.5619 16.0783 8.97725 23.3906 11.0109C30.7044 13.0471 36.848 18.5646 36.848 18.5646L36.1648 20.5176L41.6479 19.574C40.7341 22.1789 39.6845 25.1802 39.3573 26.109L37.7965 25.6735L36.6625 28.9074L39.1899 28.2057L41.0477 30.1291L42.1787 26.8953L40.4913 26.4235L42.9704 19.3455L46 18.8281ZM42.8573 18.1036C42.6688 18.6439 42.0234 18.945 41.4172 18.777C40.811 18.6076 40.4717 18.0337 40.6602 17.4934C40.8517 16.9531 41.4971 16.652 42.1018 16.82C42.7065 16.988 43.0458 17.5646 42.8573 18.1036ZM41.7866 14.8885C42.3853 14.7299 43.4017 14.566 43.1318 15.3375C43.1046 15.4127 43.0308 15.6305 42.9161 15.9463L41.7866 14.8885Z" fill="#FF602E"/>
</svg>
