<svg width="25" height="25" viewBox="0 0 25 25" fill="none" xmlns="http://www.w3.org/2000/svg">
<g clip-path="url(#clip0_1_2098)">
<path d="M5.32906 12.9411C5.30633 10.9143 6.93675 9.24689 8.96354 9.22417C10.9903 9.20144 12.6577 10.8319 12.6805 12.8587C12.7032 14.8855 11.0728 16.5529 9.04597 16.5756C7.01918 16.5983 5.35178 14.9679 5.32906 12.9411ZM10.8578 12.8791C10.8464 11.8572 10.0056 11.0354 8.98402 11.0468C7.96212 11.0583 7.14031 11.8987 7.15177 12.9207C7.16322 13.9423 8.00368 14.7644 9.02558 14.7529C10.0475 14.7415 10.8693 13.9007 10.8578 12.8791Z" fill="white"/>
<path d="M10.8884 12.8786C10.8827 12.3753 11.2861 11.9627 11.7895 11.9571L22.604 11.8358C23.1074 11.8302 23.5199 12.2336 23.5256 12.7369C23.5312 13.2403 23.1278 13.6528 22.6245 13.6585L11.8099 13.7797C11.3066 13.7854 10.894 13.382 10.8884 12.8786Z" fill="white"/>
<path d="M0.742152 12.9924C0.736508 12.489 1.13991 12.0765 1.64327 12.0708L6.23031 12.0194C6.73367 12.0138 7.14621 12.4172 7.15186 12.9205C7.1575 13.4239 6.7541 13.8364 6.25074 13.8421L1.6637 13.8935C1.16034 13.8991 0.747796 13.4957 0.742152 12.9924Z" fill="white"/>
<path d="M11.6804 21.1943C11.6577 19.1677 13.2881 17.5001 15.3149 17.4773C17.3416 17.4546 19.009 19.0853 19.0318 21.1118C19.0545 23.1386 17.4241 24.806 15.3973 24.8288C13.3705 24.8515 11.7031 23.2208 11.6804 21.1943ZM17.2094 21.1323C17.198 20.11 16.3572 19.2882 15.3353 19.2997C14.3134 19.3111 13.4916 20.1519 13.503 21.1738C13.5145 22.1957 14.3553 23.0175 15.3768 23.0061C16.3991 22.9946 17.2209 22.1538 17.2094 21.1323Z" fill="white"/>
<path d="M17.2092 21.1323C17.2035 20.6289 17.6069 20.2164 18.1103 20.2107L22.6973 20.1593C23.2007 20.1537 23.6133 20.5571 23.6189 21.0604C23.6245 21.5641 23.2211 21.9763 22.7178 21.982L18.1307 22.0334C17.6274 22.039 17.2148 21.6356 17.2092 21.1323Z" fill="white"/>
<path d="M0.835414 21.3159C0.82977 20.8125 1.23317 20.4 1.73653 20.3943L12.551 20.2731C13.0544 20.2674 13.4669 20.6708 13.4726 21.1742C13.4782 21.6778 13.0748 22.0901 12.5715 22.0957L1.75697 22.217C1.25361 22.2226 0.841057 21.8192 0.835414 21.3159Z" fill="white"/>
<path d="M11.4936 4.54729C11.4709 2.52049 13.1013 0.853094 15.1281 0.830368C17.1549 0.807643 18.8223 2.43807 18.845 4.46486C18.8677 6.49166 17.2373 8.15906 15.2105 8.18178C13.1837 8.20455 11.5163 6.57413 11.4936 4.54729ZM17.0227 4.48529C17.0112 3.46339 16.1704 2.64158 15.1485 2.65304C14.1266 2.66449 13.3048 3.50495 13.3163 4.52685C13.3277 5.54876 14.1685 6.37057 15.1901 6.35911C16.2123 6.34765 17.0341 5.5072 17.0227 4.48529Z" fill="white"/>
<path d="M17.0224 4.48531C17.0168 3.98195 17.4202 3.5694 17.9235 3.56376L22.5106 3.51232C23.0139 3.50668 23.4265 3.91008 23.4321 4.41344C23.4378 4.9168 23.0344 5.32934 22.531 5.33499L17.944 5.38642C17.4406 5.39206 17.0281 4.98866 17.0224 4.48531Z" fill="white"/>
<path d="M0.648646 4.6689C0.643002 4.16554 1.0464 3.75299 1.54976 3.74735L12.3643 3.62609C12.3643 3.62609 13.2802 4.02389 13.2858 4.52721C13.2915 5.03052 12.3847 5.44876 12.3847 5.44876L1.5702 5.57001C1.06684 5.57566 0.65429 5.17226 0.648646 4.6689Z" fill="white"/>
</g>
<defs>
<clipPath id="clip0_1_2098">
<rect width="24" height="24" fill="white" transform="matrix(0.0112118 0.999937 0.999937 -0.0112118 0 1)"/>
</clipPath>
</defs>
</svg>
