<svg width="24" height="24" viewBox="0 0 24 24" fill="none" xmlns="http://www.w3.org/2000/svg">
<path fill-rule="evenodd" clip-rule="evenodd" d="M8.89998 1.6001H8.86103H8.86101C7.77394 1.60009 6.90327 1.60008 6.1995 1.65758C5.47683 1.71663 4.85127 1.84076 4.27542 2.13417C3.35343 2.60395 2.60382 3.35355 2.13404 4.27554C1.84064 4.85139 1.71651 5.47695 1.65746 6.19962C1.59996 6.90339 1.59997 7.77406 1.59998 8.86113V8.86115V8.9001V15.1001V15.139V15.1391C1.59997 16.2261 1.59996 17.0968 1.65746 17.8006C1.71651 18.5232 1.84064 19.1488 2.13404 19.7247C2.60382 20.6466 3.35343 21.3962 4.27542 21.866C4.85127 22.1594 5.47683 22.2836 6.19949 22.3426C6.90325 22.4001 7.7739 22.4001 8.86094 22.4001H8.86102H8.89998H15.1H15.1389H15.139C16.226 22.4001 17.0967 22.4001 17.8005 22.3426C18.5231 22.2836 19.1487 22.1594 19.7245 21.866C20.6465 21.3962 21.3961 20.6466 21.8659 19.7247C22.1593 19.1488 22.2834 18.5232 22.3425 17.8006C22.4 17.0968 22.4 16.2262 22.4 15.1391V15.1391V15.1001V8.9001V8.86115V8.86106C22.4 7.77402 22.4 6.90337 22.3425 6.19962C22.2834 5.47695 22.1593 4.85139 21.8659 4.27554C21.3961 3.35355 20.6465 2.60395 19.7245 2.13417C19.1487 1.84076 18.5231 1.71663 17.8005 1.65758C17.0967 1.60008 16.226 1.60009 15.1389 1.6001H15.1389H15.1H8.89998ZM5.09261 3.73798C5.37241 3.59541 5.73472 3.50156 6.34607 3.45161C6.96793 3.4008 7.76502 3.4001 8.89998 3.4001H15.1C16.2349 3.4001 17.032 3.4008 17.6539 3.45161C18.2652 3.50156 18.6275 3.59541 18.9073 3.73798C19.4906 4.03519 19.9649 4.50943 20.2621 5.09273C20.4047 5.37253 20.4985 5.73484 20.5485 6.34619C20.5993 6.96805 20.6 7.76514 20.6 8.9001V14.4264L18.6148 11.7098C17.8158 10.6165 16.1841 10.6165 15.3852 11.7098L12.7292 15.3443C11.9663 16.3884 10.428 16.4448 9.59054 15.4596L9.02386 14.7929C8.2252 13.8533 6.77477 13.8533 5.9761 14.7929L3.46014 17.7528C3.45712 17.7206 3.45424 17.6877 3.45148 17.654C3.40068 17.0321 3.39998 16.2351 3.39998 15.1001V8.9001C3.39998 7.76514 3.40068 6.96805 3.45148 6.34619C3.50143 5.73484 3.59529 5.37253 3.73786 5.09273C4.03506 4.50943 4.5093 4.03519 5.09261 3.73798ZM10.5 8.0001C10.5 9.38081 9.3807 10.5001 7.99998 10.5001C6.61927 10.5001 5.49998 9.38081 5.49998 8.0001C5.49998 6.61938 6.61927 5.5001 7.99998 5.5001C9.3807 5.5001 10.5 6.61938 10.5 8.0001Z" fill="#4A4A4A"/>
</svg>
