<svg width="42" height="38" viewBox="0 0 42 38" fill="none" xmlns="http://www.w3.org/2000/svg">
<rect width="42" height="38" fill="white"/>
<path d="M3.71843 21.0054L0.462108 24.0424C-0.167483 24.6297 -0.151815 25.5676 0.4973 26.1373C0.815418 26.4166 1.22648 26.5555 1.63729 26.5555C2.06467 26.5555 2.49173 26.405 2.81272 26.1056L6.06904 23.0685C6.69863 22.4812 6.68296 21.5433 6.03385 20.9736C5.38473 20.4038 4.3481 20.4181 3.71843 21.0054Z" fill="#FF602E"/>
<path d="M11.2983 21.9626C10.3941 21.9626 9.66089 22.6259 9.66089 23.4441V36.4813C9.66089 37.2994 10.394 37.9628 11.2983 37.9628H11.2984C12.2026 37.9628 12.9358 37.2995 12.9358 36.4813L12.9357 23.4441C12.9357 22.6259 12.2026 21.9626 11.2983 21.9626Z" fill="#FF602E"/>
<path d="M17.6843 18.7036C16.7801 18.7036 16.0469 19.3669 16.0469 20.1851V36.4814C16.0469 37.2995 16.78 37.9629 17.6843 37.9629C18.5886 37.9629 19.3217 37.2996 19.3217 36.4814V20.185C19.3216 19.3669 18.5886 18.7036 17.6843 18.7036Z" fill="#FF602E"/>
<path d="M37.0877 0.0368652H32.1754C31.2711 0.0368652 30.538 0.700159 30.538 1.51835C30.538 2.33654 31.2711 2.99983 32.1754 2.99983H36.4911L24.4677 13.8758C24.1452 14.1677 23.723 14.3337 23.3056 14.3337C23.2968 14.3337 23.2879 14.3337 23.2791 14.3335C22.8771 14.3267 22.4662 14.1599 22.1521 13.8757L20.227 12.134C19.2846 11.2812 18.0334 10.787 16.7942 10.7777C16.7821 10.7777 16.7701 10.7777 16.7582 10.7777C15.4755 10.7777 14.1947 11.285 13.2375 12.1729L9.72849 15.362C9.09045 15.9419 9.09275 16.8799 9.73366 17.4572C10.0531 17.7449 10.471 17.8887 10.8888 17.8887C11.3091 17.8887 11.7293 17.7432 12.0492 17.4524L15.5646 14.2576C15.5695 14.2533 15.5741 14.2489 15.5789 14.2445C15.9208 13.9259 16.3664 13.7369 16.7674 13.7406C17.1489 13.7434 17.5766 13.926 17.9115 14.229L19.8366 15.9708C20.7575 16.804 21.9585 17.2746 23.2182 17.2959C24.5282 17.3181 25.8286 16.8351 26.7836 15.9709L38.7251 5.1688V8.85169C38.7251 9.66988 39.4582 10.3332 40.3625 10.3332C41.2669 10.3332 42 9.66988 42 8.85169V4.48132C42 2.03068 39.7964 0.0368652 37.0877 0.0368652Z" fill="#FF602E"/>
<path d="M4.83588 28.6296C3.92943 28.6268 3.19287 29.2909 3.19287 30.1111V36.4815C3.19287 37.2996 3.92599 37.963 4.8303 37.963H4.83038C5.73469 37.963 6.46781 37.2997 6.46781 36.4815V30.1111C6.46773 29.2949 5.73814 28.6324 4.83588 28.6296Z" fill="#FF602E"/>
<path d="M37.0058 12.7036C36.1015 12.7036 35.3684 13.3669 35.3684 14.1851V36.4815C35.3684 37.2996 36.1015 37.963 37.0058 37.963H37.0059C37.9101 37.963 38.6433 37.2997 38.6433 36.4815V14.1851C38.6433 13.3668 37.9102 12.7036 37.0058 12.7036Z" fill="#FF602E"/>
<path d="M24.07 20.5554C23.1657 20.5554 22.4326 21.2187 22.4326 22.0369V36.4814C22.4326 37.2995 23.1657 37.9629 24.07 37.9629H24.0701C24.9744 37.9629 25.7076 37.2996 25.7076 36.4814V22.0369C25.7075 21.2187 24.9744 20.5554 24.07 20.5554Z" fill="#FF602E"/>
<path d="M30.5321 17.7405C29.6301 17.7435 28.9006 18.4059 28.9006 19.222V36.4814C28.9006 37.2995 29.6337 37.9628 30.5381 37.9628H30.5381C31.4424 37.9628 32.1756 37.2995 32.1756 36.4814V19.222C32.1754 18.4016 31.4387 17.7374 30.5321 17.7405Z" fill="#FF602E"/>
</svg>
