<svg width="24" height="24" viewBox="0 0 24 24" fill="none" xmlns="http://www.w3.org/2000/svg">
<path fill-rule="evenodd" clip-rule="evenodd" d="M9.99998 1.6001C8.12222 1.6001 6.59998 3.12233 6.59998 5.0001C6.59998 5.55238 6.15227 6.0001 5.59998 6.0001H3.76555C2.7569 6.0001 1.9061 6.75117 1.781 7.75203L1.21514 12.2789C1.09168 13.2665 1.71323 14.1946 2.67346 14.4565L4.66665 15.0001L10.9475 16.7131C11.5504 16.8775 12.1823 16.8981 12.7924 16.7747C12.8796 16.7571 12.9663 16.7366 13.0525 16.7131L19.3333 15.0001L21.3265 14.4565C22.2867 14.1946 22.9083 13.2665 22.7848 12.2789L22.219 7.75203C22.0939 6.75117 21.2431 6.0001 20.2344 6.0001H18.4C17.8477 6.0001 17.4 5.55238 17.4 5.0001C17.4 3.12233 15.8778 1.6001 14 1.6001H9.99998ZM14.6 6.0001C15.1523 6.0001 15.6 5.55238 15.6 5.0001C15.6 4.11644 14.8836 3.4001 14 3.4001H9.99998C9.11633 3.4001 8.39998 4.11644 8.39998 5.0001C8.39998 5.55238 8.8477 6.0001 9.39998 6.0001H14.6ZM3.02512 16.1072C2.60504 15.9926 2.1322 16.1608 2.04271 16.587C2.01471 16.7203 1.99999 16.8585 1.99999 17.0001V20.0001C1.99999 21.1047 2.89542 22.0001 3.99999 22.0001H20C21.1046 22.0001 22 21.1047 22 20.0001V17.0001C22 16.8585 21.9853 16.7203 21.9573 16.587C21.8678 16.1608 21.3949 15.9926 20.9748 16.1072L13.4471 18.1602C12.4997 18.4186 11.5003 18.4186 10.5528 18.1602L3.02512 16.1072Z" fill="#4A4A4A"/>
</svg>
