<svg width="49" height="40" viewBox="0 0 49 40" fill="none" xmlns="http://www.w3.org/2000/svg">
<path d="M30.2422 4.6875C30.2422 2.10281 27.6662 0 24.5 0C21.3338 0 18.7578 2.10281 18.7578 4.6875C18.7578 7.27219 21.3338 9.375 24.5 9.375C27.6662 9.375 30.2422 7.27219 30.2422 4.6875ZM24.5 7.03125C22.9169 7.03125 21.6289 5.97984 21.6289 4.6875C21.6289 3.39516 22.9169 2.34375 24.5 2.34375C26.0831 2.34375 27.3711 3.39516 27.3711 4.6875C27.3711 5.97984 26.0831 7.03125 24.5 7.03125Z" fill="#FF602E"/>
<path d="M15.8867 16.4063H13.0156V11.0323L15.4662 9.03186L13.436 7.37459L10.1445 10.0615V16.4063H8.70898V18.7501H11.7689L14.2337 32.9688H11.5801V37.6563H8.70898V40.0001H40.291V37.6563H37.4199V32.9688H34.7664L37.2312 18.7501H40.291V16.4063H38.8555V10.0615L35.5639 7.37451L33.5337 9.03178L35.9844 11.0323V16.4063H33.1133C33.1133 12.5293 29.2494 9.37506 24.5 9.37506C19.7506 9.37506 15.8867 12.5293 15.8867 16.4063ZM14.4512 37.6563V35.3126H34.5488V37.6563H14.4512ZM34.3313 18.7501L31.8665 32.9688H25.9355V21.0938H23.0645V32.9688H17.1334L14.6686 18.7501H34.3313ZM24.5 11.7188C27.6662 11.7188 30.2422 13.8216 30.2422 16.4063H18.7578C18.7578 13.8216 21.3338 11.7188 24.5 11.7188Z" fill="#FF602E"/>
</svg>
